<svg xmlns="http://www.w3.org/2000/svg" viewBox="0 0 314.94 314.94"><defs><style>.cls-1{fill:#0057b8;}.cls-1,.cls-2{fill-rule:evenodd;}.cls-2{fill:gold;}</style></defs><g id="Слой_2" data-name="Слой 2"><g id="Слой_1-2" data-name="Слой 1"><path class="cls-1" d="M132.25,61.55q9.75,5.94,26.48,6.75l.81,0a37.16,37.16,0,0,1,35.07,37.09h13.46a50.58,50.58,0,0,0-25.38-43.87,50.57,50.57,0,0,0,25.38-43.87H194.61a37.14,37.14,0,1,1-74.28,0H106.87A50.57,50.57,0,0,0,132.25,61.55Z"/><path class="cls-1" d="M157.47,0a18.76,18.76,0,1,1-18.75,18.76A18.76,18.76,0,0,1,157.47,0Z"/><path class="cls-2" d="M182.69,253.39q-9.75-5.94-26.49-6.74l-.8,0a37.15,37.15,0,0,1-35.07-37.09H106.87a50.56,50.56,0,0,0,25.38,43.87,50.58,50.58,0,0,0-25.38,43.87h13.46a37.14,37.14,0,0,1,74.28,0h13.46A50.58,50.58,0,0,0,182.69,253.39Z"/><path class="cls-2" d="M157.47,314.94a18.76,18.76,0,1,1,18.75-18.75A18.75,18.75,0,0,1,157.47,314.94Z"/><path class="cls-1" d="M207.47,71.81q2.68,11.1,13.95,23.5l.55.6a37.15,37.15,0,0,1-1.43,51l9.51,9.52a50.57,50.57,0,0,0,13.08-49,50.59,50.59,0,0,0,49-13.08l-9.52-9.51a37.14,37.14,0,0,1-52.53-52.53l-9.51-9.52A50.59,50.59,0,0,0,207.47,71.81Z"/><path class="cls-1" d="M268.82,46.13a18.76,18.76,0,1,1-26.53,0A18.76,18.76,0,0,1,268.82,46.13Z"/><path class="cls-2" d="M107.48,243.13q-2.7-11.1-14-23.5L93,219a37.16,37.16,0,0,1,1.43-51l-9.51-9.51a50.54,50.54,0,0,0-13.08,49,50.6,50.6,0,0,0-49,13.09l9.51,9.5a37.15,37.15,0,1,1,52.54,52.53l9.51,9.52A50.61,50.61,0,0,0,107.48,243.13Z"/><path class="cls-2" d="M46.12,268.82a18.76,18.76,0,1,1,26.52,0A18.77,18.77,0,0,1,46.12,268.82Z"/><path class="cls-1" d="M253.39,132.25q-5.94,9.75-6.74,26.49c0,.27,0,.54,0,.8a37.15,37.15,0,0,1-37.09,35.07v13.46a50.57,50.57,0,0,0,43.87-25.38,50.58,50.58,0,0,0,43.87,25.38V194.61a37.14,37.14,0,1,1,0-74.28V106.87A50.61,50.61,0,0,0,253.39,132.25Z"/><path class="cls-1" d="M314.94,157.47a18.76,18.76,0,1,1-18.75-18.75A18.76,18.76,0,0,1,314.94,157.47Z"/><path class="cls-2" d="M61.55,182.69q5.94-9.74,6.74-26.48c0-.27,0-.54,0-.81a37.16,37.16,0,0,1,37.09-35.07V106.87a50.59,50.59,0,0,0-43.87,25.38,50.61,50.61,0,0,0-43.88-25.38v13.46a37.14,37.14,0,1,1,0,74.28v13.46A50.59,50.59,0,0,0,61.55,182.69Z"/><path class="cls-2" d="M0,157.47a18.76,18.76,0,1,1,18.75,18.76A18.76,18.76,0,0,1,0,157.47Z"/><path class="cls-2" d="M243.13,207.46q-11.1,2.7-23.5,14l-.6.54a37.16,37.16,0,0,1-51-1.42l-9.51,9.5a50.58,50.58,0,0,0,49,13.08,50.58,50.58,0,0,0,13.07,49l9.51-9.52a37.14,37.14,0,0,1,52.53-52.53l9.52-9.5A50.59,50.59,0,0,0,243.13,207.46Z"/><path class="cls-2" d="M268.82,268.82a18.76,18.76,0,1,1,0-26.53A18.77,18.77,0,0,1,268.82,268.82Z"/><path class="cls-1" d="M71.81,107.48q11.1-2.7,23.5-14L95.9,93a37.16,37.16,0,0,1,51,1.43l9.51-9.51a50.56,50.56,0,0,0-49-13.08,50.59,50.59,0,0,0-13.07-49l-9.51,9.52A37.15,37.15,0,1,1,32.35,84.89L22.84,94.4A50.59,50.59,0,0,0,71.81,107.48Z"/><path class="cls-1" d="M46.12,46.13a18.75,18.75,0,1,1,0,26.52A18.74,18.74,0,0,1,46.12,46.13Z"/></g></g></svg>