<svg xmlns="http://www.w3.org/2000/svg" viewBox="0 0 485.04 402.43"><defs><style>.cls-1{fill-rule:evenodd;}</style></defs><g id="Слой_2" data-name="Слой 2"><g id="Слой_1-2" data-name="Слой 1"><path d="M30.27,349.71q-9.19,0-14.06,5.72T11.35,371.3a31.63,31.63,0,0,0,1.16,8.81A19.48,19.48,0,0,0,16,387a15.71,15.71,0,0,0,5.68,4.43,18.55,18.55,0,0,0,8,1.59,46.26,46.26,0,0,0,4.91-.22,18.45,18.45,0,0,0,3.26-.56V370.78H48.59v28.64A50.76,50.76,0,0,1,41,401.31a65,65,0,0,1-12.3,1,32.52,32.52,0,0,1-11.78-2.06,24.45,24.45,0,0,1-9.07-6,27.52,27.52,0,0,1-5.81-9.72A39.29,39.29,0,0,1,0,371.3a35.82,35.82,0,0,1,2.28-13.25,28.83,28.83,0,0,1,6.23-9.76,26.29,26.29,0,0,1,9.29-6.06,31.11,31.11,0,0,1,11.35-2.06,43.74,43.74,0,0,1,7.36.55A50.39,50.39,0,0,1,42.05,342a22.94,22.94,0,0,1,3.83,1.46c1,.52,1.71.89,2.11,1.12l-3.27,8.86a26.18,26.18,0,0,0-6.41-2.62A29.45,29.45,0,0,0,30.27,349.71Z"/><path d="M81.87,340.94q12.9,0,19.74,4.73t6.84,14.45q0,12.12-12,16.42,1.64,2,3.7,4.82t4.21,6.15c1.44,2.21,2.81,4.47,4.13,6.79s2.5,4.6,3.53,6.84H99.93c-1.09-2.07-2.26-4.14-3.52-6.24s-2.54-4.12-3.83-6.1S90,385,88.75,383.21s-2.44-3.31-3.52-4.69q-1.22.09-2.07.09H76.28v22.53H65.45V342.4a58.16,58.16,0,0,1,8.42-1.16Q78.34,340.94,81.87,340.94Zm.78,9.37q-3.45,0-6.37.26v19.27H81a49.25,49.25,0,0,0,7-.44,14.69,14.69,0,0,0,5-1.54,7.56,7.56,0,0,0,3-3,10,10,0,0,0,1-4.82,9.56,9.56,0,0,0-1-4.64,7.64,7.64,0,0,0-3-3,13.84,13.84,0,0,0-4.61-1.59A32.94,32.94,0,0,0,82.65,350.31Z"/><path d="M179.4,371.3a37,37,0,0,1-2.28,13.5,28,28,0,0,1-6.19,9.76,25.62,25.62,0,0,1-9.16,5.89,31.43,31.43,0,0,1-11.18,2,31.78,31.78,0,0,1-11.23-2,25.52,25.52,0,0,1-9.2-5.89,28.42,28.42,0,0,1-6.23-9.76,36.36,36.36,0,0,1-2.33-13.5,36,36,0,0,1,2.33-13.46,28.3,28.3,0,0,1,6.32-9.76,26.09,26.09,0,0,1,9.24-5.94,32.23,32.23,0,0,1,22.19,0,25.26,25.26,0,0,1,9.16,5.94,29,29,0,0,1,6.24,9.76A36.21,36.21,0,0,1,179.4,371.3Zm-46.53,0a30.6,30.6,0,0,0,1.21,8.9,19.46,19.46,0,0,0,3.48,6.79,15.88,15.88,0,0,0,5.54,4.35,17.13,17.13,0,0,0,7.4,1.54,16.88,16.88,0,0,0,7.31-1.54,15.83,15.83,0,0,0,5.55-4.35,19.46,19.46,0,0,0,3.48-6.79,33.6,33.6,0,0,0,0-17.8,19.51,19.51,0,0,0-3.48-6.8,15.8,15.8,0,0,0-5.55-4.34,16.88,16.88,0,0,0-7.31-1.55,17.13,17.13,0,0,0-7.4,1.55,15.63,15.63,0,0,0-5.54,4.38,20,20,0,0,0-3.48,6.8A30.13,30.13,0,0,0,132.87,371.3Z"/><path d="M208.59,341.54q1.89,3.27,4.22,8t4.73,9.93q2.4,5.2,4.77,10.58t4.34,9.93q2-4.56,4.3-9.93t4.73-10.58q2.41-5.21,4.73-9.93t4.22-8h9.76q.8,6.54,1.49,13.89t1.27,15.05q.57,7.69,1.05,15.48t.83,15.18H248.37q-.36-10.41-.83-21.42t-1.45-21.32c-.63,1.32-1.38,2.89-2.24,4.73s-1.77,3.82-2.75,6-2,4.38-3,6.67-2,4.51-2.92,6.66-1.82,4.16-2.62,6-1.49,3.46-2.07,4.78h-8.08q-.85-2-2.06-4.82c-.81-1.89-1.68-3.91-2.63-6.06s-1.92-4.37-2.92-6.67-2-4.5-3-6.62-1.89-4.11-2.75-6-1.61-3.42-2.24-4.68q-1,10.32-1.44,21.32t-.84,21.42H193.93q.34-7.39.83-15.31t1.05-15.69q.57-7.78,1.27-15.1t1.49-13.5Z"/><path d="M315.53,401.14q-1.2-3.52-2.5-7t-2.5-7.05H285.36c-.81,2.41-1.63,4.77-2.46,7.1s-1.65,4.63-2.45,6.92H269.18q3.35-9.56,6.36-17.63t5.88-15.31q2.88-7.21,5.71-13.76t5.85-12.9h10.34q3,6.36,5.85,12.9t5.72,13.76q2.88,7.23,5.94,15.31t6.4,17.63ZM298,353.06q-2,4.56-4.52,11.1t-5.29,14.19h19.61q-2.75-7.65-5.33-14.28T298,353.06Z"/><path d="M339,341.54h10.84v59.6H339Z"/><path d="M419,371.3a34.46,34.46,0,0,1-2.41,13.46,25.4,25.4,0,0,1-6.83,9.54A28.47,28.47,0,0,1,399.08,400a48.55,48.55,0,0,1-13.8,1.85q-3.61,0-8.17-.3a56.28,56.28,0,0,1-8.69-1.25V342.4a52.11,52.11,0,0,1,8.77-1.2c3.1-.18,5.85-.26,8.26-.26a50,50,0,0,1,13.67,1.76,28.24,28.24,0,0,1,10.63,5.51,24.57,24.57,0,0,1,6.83,9.46A34.89,34.89,0,0,1,419,371.3Zm-39.73,20.89c.63.06,1.46.11,2.49.13s2.44.05,4.22.05q10.92,0,16.29-5.55t5.38-15.52q0-10.16-5.25-15.57t-16.25-5.42a63.43,63.43,0,0,0-6.88.26Z"/><path d="M473.34,401.14c-.8-2.35-1.64-4.67-2.5-7s-1.69-4.64-2.5-7.05H443.17c-.81,2.41-1.63,4.77-2.46,7.1s-1.65,4.63-2.46,6.92H427q3.35-9.56,6.35-17.63t5.89-15.31q2.88-7.21,5.71-13.76t5.85-12.9h10.34q3,6.36,5.85,12.9t5.72,13.76q2.88,7.23,5.93,15.31T485,401.14Zm-17.59-48.08q-2,4.56-4.51,11.1T446,378.35h19.61q-2.76-7.65-5.33-14.28T455.75,353.06Z"/><path class="cls-1" d="M217.3,61.55q9.75,5.94,26.49,6.75l.81,0a37.16,37.16,0,0,1,35.07,37.09h13.45a50.58,50.58,0,0,0-25.38-43.87,50.57,50.57,0,0,0,25.38-43.87H279.67a37.15,37.15,0,1,1-74.29,0H191.92A50.59,50.59,0,0,0,217.3,61.55Z"/><path class="cls-1" d="M242.52,0a18.76,18.76,0,1,1-18.75,18.76A18.76,18.76,0,0,1,242.52,0Z"/><path class="cls-1" d="M267.74,253.39q-9.75-5.94-26.49-6.74l-.8,0a37.15,37.15,0,0,1-35.07-37.09H191.92a50.58,50.58,0,0,0,25.38,43.87,50.61,50.61,0,0,0-25.38,43.87h13.46a37.15,37.15,0,0,1,74.29,0h13.45A50.58,50.58,0,0,0,267.74,253.39Z"/><path class="cls-1" d="M242.52,314.94a18.76,18.76,0,1,1,18.76-18.75A18.75,18.75,0,0,1,242.52,314.94Z"/><path class="cls-1" d="M292.52,71.81q2.69,11.1,14,23.5l.55.6a37.15,37.15,0,0,1-1.43,51l9.51,9.52a50.57,50.57,0,0,0,13.08-49,50.59,50.59,0,0,0,49-13.08l-9.52-9.51A37.14,37.14,0,0,1,315.1,32.36l-9.51-9.52A50.59,50.59,0,0,0,292.52,71.81Z"/><path class="cls-1" d="M353.87,46.13a18.76,18.76,0,1,1-26.53,0A18.76,18.76,0,0,1,353.87,46.13Z"/><path class="cls-1" d="M192.53,243.13q-2.7-11.1-14-23.5L178,219a37.16,37.16,0,0,1,1.43-51l-9.51-9.51a50.59,50.59,0,0,0-13.08,49,50.57,50.57,0,0,0-49,13.09l9.51,9.5a37.14,37.14,0,1,1,52.53,52.53l9.51,9.52A50.61,50.61,0,0,0,192.53,243.13Z"/><path class="cls-1" d="M131.17,268.82a18.76,18.76,0,1,1,26.53,0A18.77,18.77,0,0,1,131.17,268.82Z"/><path class="cls-1" d="M338.44,132.25q-5.94,9.75-6.74,26.49c0,.27,0,.54,0,.8a37.15,37.15,0,0,1-37.09,35.07v13.46a50.57,50.57,0,0,0,43.87-25.38,50.58,50.58,0,0,0,43.87,25.38V194.61a37.14,37.14,0,1,1,0-74.28V106.87A50.61,50.61,0,0,0,338.44,132.25Z"/><path class="cls-1" d="M400,157.47a18.76,18.76,0,1,1-18.75-18.75A18.76,18.76,0,0,1,400,157.47Z"/><path class="cls-1" d="M146.6,182.69q5.94-9.74,6.74-26.48c0-.27,0-.54,0-.81a37.16,37.16,0,0,1,37.09-35.07V106.87a50.59,50.59,0,0,0-43.87,25.38,50.61,50.61,0,0,0-43.87-25.38v13.46a37.14,37.14,0,0,1,0,74.28v13.46A50.58,50.58,0,0,0,146.6,182.69Z"/><path class="cls-1" d="M85.05,157.47a18.76,18.76,0,1,1,18.75,18.76A18.76,18.76,0,0,1,85.05,157.47Z"/><path class="cls-1" d="M328.18,207.46q-11.08,2.7-23.5,14l-.6.54a37.16,37.16,0,0,1-51-1.42l-9.51,9.5a50.58,50.58,0,0,0,49,13.08,50.58,50.58,0,0,0,13.07,49l9.51-9.52a37.14,37.14,0,0,1,52.53-52.53l9.52-9.5A50.59,50.59,0,0,0,328.18,207.46Z"/><path class="cls-1" d="M353.87,268.82a18.76,18.76,0,1,1,0-26.53A18.77,18.77,0,0,1,353.87,268.82Z"/><path class="cls-1" d="M156.86,107.48q11.1-2.7,23.5-14L181,93a37.15,37.15,0,0,1,51,1.43l9.51-9.51a50.56,50.56,0,0,0-49-13.08,50.59,50.59,0,0,0-13.07-49l-9.51,9.52a37.14,37.14,0,1,1-52.53,52.53L107.9,94.4A50.57,50.57,0,0,0,156.86,107.48Z"/><path class="cls-1" d="M131.17,46.13a18.76,18.76,0,1,1,0,26.52A18.75,18.75,0,0,1,131.17,46.13Z"/></g></g></svg>