<svg id="Слой_1" data-name="Слой 1" xmlns="http://www.w3.org/2000/svg" viewBox="0 0 772.85 720"><defs><style>.cls-1{fill:#0057b8;}.cls-1,.cls-2{fill-rule:evenodd;}.cls-2{fill:gold;}.cls-3{fill:#002f4c;}</style></defs><path class="cls-1" d="M361.2,220.33q9.75,6,26.49,6.75l.81,0a37.15,37.15,0,0,1,35.07,37.09H437a50.59,50.59,0,0,0-25.38-43.88A50.56,50.56,0,0,0,437,176.46H423.57a37.15,37.15,0,1,1-74.29,0H335.83A50.57,50.57,0,0,0,361.2,220.33Z"/><path class="cls-1" d="M386.42,158.79a18.76,18.76,0,1,1-18.75,18.75A18.76,18.76,0,0,1,386.42,158.79Z"/><path class="cls-2" d="M411.64,412.17q-9.74-5.94-26.48-6.74l-.81,0a37.13,37.13,0,0,1-35.07-37.08H335.83a50.54,50.54,0,0,0,25.37,43.86,50.61,50.61,0,0,0-25.37,43.88h13.45a37.15,37.15,0,0,1,74.29,0H437A50.6,50.6,0,0,0,411.64,412.17Z"/><path class="cls-2" d="M386.42,473.73A18.76,18.76,0,1,1,405.18,455,18.76,18.76,0,0,1,386.42,473.73Z"/><path class="cls-1" d="M436.42,230.6q2.68,11.09,14,23.5l.54.59a37.16,37.16,0,0,1-1.42,51l9.51,9.51a50.58,50.58,0,0,0,13.07-49,50.57,50.57,0,0,0,49-13.07l-9.51-9.51A37.15,37.15,0,1,1,459,191.14l-9.51-9.51A50.61,50.61,0,0,0,436.42,230.6Z"/><path class="cls-1" d="M497.77,204.91a18.75,18.75,0,1,1-26.52,0A18.76,18.76,0,0,1,497.77,204.91Z"/><path class="cls-2" d="M336.43,401.92q-2.69-11.1-14-23.5l-.54-.6a37.15,37.15,0,0,1,1.42-51l-9.51-9.51a50.56,50.56,0,0,0-13.07,49,50.6,50.6,0,0,0-49,13.08l9.51,9.51a37.14,37.14,0,0,1,52.53,52.53l9.51,9.52A50.57,50.57,0,0,0,336.43,401.92Z"/><path class="cls-2" d="M275.08,427.61a18.76,18.76,0,1,1,26.52,0A18.75,18.75,0,0,1,275.08,427.61Z"/><path class="cls-1" d="M482.35,291q-6,9.75-6.75,26.48c0,.28,0,.54,0,.81a37.14,37.14,0,0,1-37.08,35.07v13.45a50.6,50.6,0,0,0,43.87-25.37,50.58,50.58,0,0,0,43.87,25.37V353.4a37.15,37.15,0,1,1,0-74.29V265.66A50.57,50.57,0,0,0,482.35,291Z"/><path class="cls-1" d="M543.89,316.26a18.75,18.75,0,1,1-18.75-18.76A18.75,18.75,0,0,1,543.89,316.26Z"/><path class="cls-2" d="M290.5,341.48q6-9.75,6.75-26.49l0-.81a37.16,37.16,0,0,1,37.09-35.07V265.66A50.58,50.58,0,0,0,290.5,291a50.57,50.57,0,0,0-43.87-25.38v13.45a37.15,37.15,0,1,1,0,74.29v13.45A50.58,50.58,0,0,0,290.5,341.48Z"/><path class="cls-2" d="M229,316.26A18.76,18.76,0,1,1,247.71,335,18.75,18.75,0,0,1,229,316.26Z"/><path class="cls-2" d="M472.08,366.25q-11.08,2.7-23.5,14l-.59.55a37.16,37.16,0,0,1-51-1.43l-9.52,9.51a50.62,50.62,0,0,0,49,13.08,50.57,50.57,0,0,0,13.08,49l9.51-9.52a37.14,37.14,0,0,1,52.53-52.53l9.51-9.51A50.6,50.6,0,0,0,472.08,366.25Z"/><path class="cls-2" d="M497.77,427.61a18.76,18.76,0,1,1,0-26.53A18.78,18.78,0,0,1,497.77,427.61Z"/><path class="cls-1" d="M300.77,266.26q11.09-2.68,23.49-13.95l.6-.55a37.15,37.15,0,0,1,51,1.43l9.52-9.51a50.56,50.56,0,0,0-49-13.08,50.59,50.59,0,0,0-13.08-49l-9.51,9.51a37.15,37.15,0,1,1-52.53,52.54l-9.51,9.51A50.57,50.57,0,0,0,300.77,266.26Z"/><path class="cls-1" d="M275.08,204.91a18.75,18.75,0,1,1,0,26.52A18.76,18.76,0,0,1,275.08,204.91Z"/><path class="cls-3" d="M597,517.84a48.09,48.09,0,0,0-7,1.68l1.56,10.22a35.64,35.64,0,0,1,5.95-1.46,48.58,48.58,0,0,1,8-.63,14.86,14.86,0,0,1,5.38.84,8.38,8.38,0,0,1,5.27,5.84,16.28,16.28,0,0,1,.52,4.18v2.09a39.92,39.92,0,0,0-17.9-.26,21.41,21.41,0,0,0-7.26,2.92,15.06,15.06,0,0,0-5,5.27,15.9,15.9,0,0,0-1.83,7.93,18.81,18.81,0,0,0,1.62,8.25,14.18,14.18,0,0,0,4.49,5.42,18.81,18.81,0,0,0,6.94,3,40.28,40.28,0,0,0,9,.93,91.61,91.61,0,0,0,13.3-.88c3.93-.6,6.88-1.1,8.83-1.52V538.61a33.55,33.55,0,0,0-1.1-8.82,16.34,16.34,0,0,0-3.66-6.83,16.86,16.86,0,0,0-6.83-4.39A31,31,0,0,0,606.82,517,54.55,54.55,0,0,0,597,517.84Zm3.24,44.52q-2.82-1.73-2.82-6.21a6.61,6.61,0,0,1,1-3.81,7.05,7.05,0,0,1,2.77-2.35,13.17,13.17,0,0,1,3.86-1.15,29.07,29.07,0,0,1,4.23-.31,28.24,28.24,0,0,1,4.39.31,24.54,24.54,0,0,1,3,.63v14a47.54,47.54,0,0,1-8.87.63A14.53,14.53,0,0,1,600.24,562.36Zm-27-42.17a30,30,0,0,0-8.3-11.48A34,34,0,0,0,552,502a60.35,60.35,0,0,0-16.6-2.14c-2.92,0-6.26.11-10,.31a63.94,63.94,0,0,0-10.64,1.46v70.25a68.06,68.06,0,0,0,10.54,1.51q5.52.38,9.92.37A58.66,58.66,0,0,0,552,571.54a34.37,34.37,0,0,0,12.94-6.89,30.86,30.86,0,0,0,8.3-11.58,41.91,41.91,0,0,0,2.92-16.34A42.46,42.46,0,0,0,573.21,520.19Zm-45.3-8.61a76.44,76.44,0,0,1,8.35-.31q13.35,0,19.72,6.57t6.37,18.89q0,12.1-6.52,18.84t-19.78,6.74c-2.16,0-3.86,0-5.12-.06s-2.26-.08-3-.15ZM484.28,573h13.15V500.62H484.28Zm-39.19-45q3.12,8,6.46,17.33H427.76q3.33-9.3,6.42-17.23c2.05-5.28,3.87-9.78,5.48-13.46Q442,519.93,445.09,528Zm30.11,45q-4.08-11.58-7.77-21.39T460.22,533q-3.5-8.78-6.94-16.7t-7.1-15.66H433.63q-3.66,7.72-7.1,15.66T419.6,533q-3.5,8.76-7.14,18.58T404.74,573h13.67c1-2.78,2-5.58,3-8.4s2-5.69,3-8.61h30.55c1,2.92,2,5.78,3,8.56s2,5.6,3,8.45Zm-122.12,0h12.63V542.79a58.64,58.64,0,0,0-.32-6.27,28.52,28.52,0,0,0-1.14-5.53,18.93,18.93,0,0,1,4.06-1.93,16.67,16.67,0,0,1,5.75-1q5.94,0,8,3.81t2.09,12.37V573h12.63V542.26a54.46,54.46,0,0,0-.89-10.17,20,20,0,0,0-3.23-7.94,15.51,15.51,0,0,0-6.47-5.11,26.21,26.21,0,0,0-10.49-1.83,23.61,23.61,0,0,0-5,.53,36.65,36.65,0,0,0-4.65,1.3,32,32,0,0,0-4,1.72,24.6,24.6,0,0,0-2.93,1.78,18,18,0,0,0-6-3.87,25.11,25.11,0,0,0-9.23-1.46,78.82,78.82,0,0,0-12.48.95,84.47,84.47,0,0,0-9.55,2V573H334.6V528.9c.84-.13,2.09-.3,3.76-.52a37,37,0,0,1,4.59-.31q5.85,0,8,3.81t2.14,12.37Zm-60.59-14.29a12.32,12.32,0,0,1-19.52,0c-2.34-3.21-3.5-7.55-3.5-13s1.16-9.73,3.5-12.89a12.4,12.4,0,0,1,19.52,0q3.5,4.74,3.49,12.89C296,551.11,294.82,555.45,292.49,558.66Zm14.5-24.8a26.76,26.76,0,0,0-5.37-9,23.45,23.45,0,0,0-8.3-5.79,27.23,27.23,0,0,0-10.59-2,26.8,26.8,0,0,0-10.54,2,24,24,0,0,0-8.3,5.79,26.4,26.4,0,0,0-5.43,9,33.91,33.91,0,0,0-1.93,11.75,34.27,34.27,0,0,0,1.93,11.79,26.78,26.78,0,0,0,5.38,9.08,23.88,23.88,0,0,0,8.24,5.84,26.29,26.29,0,0,0,10.65,2.09,26.67,26.67,0,0,0,10.7-2.09,23.8,23.8,0,0,0,8.29-5.84,26.06,26.06,0,0,0,5.33-9.08,35.26,35.26,0,0,0,1.88-11.79A33.91,33.91,0,0,0,307,533.86Zm-56.21-14.77c-.62-.2-1.46-.43-2.5-.67s-2.13-.46-3.24-.63-2.22-.31-3.34-.42-2.09-.16-2.92-.16a56.29,56.29,0,0,0-12.16,1.21,68.37,68.37,0,0,0-9.13,2.56v52h12.63V529.22a27,27,0,0,1,3.28-.73,25.34,25.34,0,0,1,4.44-.42,31.26,31.26,0,0,1,6.42.58,39.33,39.33,0,0,1,4.33,1.09Zm-60.38-7.25a32.06,32.06,0,0,1,7.78,3.18l4-10.75c-.49-.27-1.35-.73-2.56-1.35a27.26,27.26,0,0,0-4.65-1.78,59.08,59.08,0,0,0-6.73-1.51,51.81,51.81,0,0,0-8.92-.68,37.62,37.62,0,0,0-13.78,2.51,31.68,31.68,0,0,0-11.27,7.35,34.83,34.83,0,0,0-7.57,11.85,43.57,43.57,0,0,0-2.77,16.07,47.44,47.44,0,0,0,2.51,16.07,33.23,33.23,0,0,0,7,11.8,29.61,29.61,0,0,0,11,7.31,39.36,39.36,0,0,0,14.3,2.5,79.76,79.76,0,0,0,14.93-1.24,62.16,62.16,0,0,0,9.19-2.31V536.1H189.73v26a23.72,23.72,0,0,1-4,.68c-1.67.17-3.66.26-5.95.26a22.46,22.46,0,0,1-9.65-1.94,18.82,18.82,0,0,1-6.89-5.37,23.54,23.54,0,0,1-4.18-8.29,38.35,38.35,0,0,1-1.41-10.71q0-12.3,5.9-19.25t17.06-6.94A35.88,35.88,0,0,1,190.4,511.84Z"/></svg>