<svg xmlns="http://www.w3.org/2000/svg" viewBox="0 0 768.24 246.29"><defs><style>.cls-1{fill:#002f4c;}.cls-2{fill:#0057b8;}.cls-2,.cls-3{fill-rule:evenodd;}.cls-3{fill:gold;}</style></defs><g id="Слой_2" data-name="Слой 2"><g id="Слой_1-2" data-name="Слой 1"><path class="cls-1" d="M313.47,101.56q-9.21,0-14.06,5.72t-4.86,15.87a31.31,31.31,0,0,0,1.16,8.81,19.32,19.32,0,0,0,3.44,6.84,15.76,15.76,0,0,0,5.67,4.43,18.63,18.63,0,0,0,8,1.59,46.19,46.19,0,0,0,4.9-.22A19.39,19.39,0,0,0,321,144V122.63h10.83v28.64a50.89,50.89,0,0,1-7.56,1.89,65.2,65.2,0,0,1-12.3,1,32.48,32.48,0,0,1-11.78-2.06,24.49,24.49,0,0,1-9.08-6,27.36,27.36,0,0,1-5.8-9.72,39.07,39.07,0,0,1-2.07-13.24,35.82,35.82,0,0,1,2.28-13.25,28.7,28.7,0,0,1,6.24-9.76A26.11,26.11,0,0,1,301,94.08,31,31,0,0,1,312.35,92a43.63,43.63,0,0,1,7.35.56,51.15,51.15,0,0,1,5.55,1.25,23.28,23.28,0,0,1,3.83,1.46c1,.52,1.7.89,2.1,1.12l-3.27,8.86a26.1,26.1,0,0,0-6.4-2.62A29.45,29.45,0,0,0,313.47,101.56Z"/><path class="cls-1" d="M365.07,92.79q12.9,0,19.73,4.73T391.64,112q0,12.12-11.95,16.42,1.63,2,3.69,4.82c1.38,1.89,2.78,3.94,4.22,6.15s2.81,4.47,4.13,6.79,2.49,4.6,3.52,6.84H383.13c-1.09-2.07-2.27-4.14-3.53-6.24s-2.54-4.12-3.83-6.1-2.56-3.84-3.82-5.59-2.44-3.31-3.53-4.69c-.8.06-1.49.09-2.06.09h-6.88V153H348.64V94.25a58.5,58.5,0,0,1,8.43-1.16Q361.54,92.79,365.07,92.79Zm.77,9.37q-3.43,0-6.36.26v19.26h4.73a49.22,49.22,0,0,0,7-.43,14.55,14.55,0,0,0,5-1.54,7.58,7.58,0,0,0,3.06-3,10.1,10.1,0,0,0,1-4.82,9.67,9.67,0,0,0-1-4.64,7.67,7.67,0,0,0-3-3,13.79,13.79,0,0,0-4.6-1.59A33.13,33.13,0,0,0,365.84,102.16Z"/><path class="cls-1" d="M462.59,123.15a37,37,0,0,1-2.28,13.5,27.9,27.9,0,0,1-6.19,9.76A25.53,25.53,0,0,1,445,152.3a31.39,31.39,0,0,1-11.18,2,31.73,31.73,0,0,1-11.22-2,25.35,25.35,0,0,1-9.2-5.89,28.44,28.44,0,0,1-6.24-9.76,36.37,36.37,0,0,1-2.32-13.5,36,36,0,0,1,2.32-13.46,28.35,28.35,0,0,1,6.32-9.76A26.13,26.13,0,0,1,422.69,94a32.08,32.08,0,0,1,22.19,0A25.22,25.22,0,0,1,454,99.93a28.92,28.92,0,0,1,6.24,9.76A36,36,0,0,1,462.59,123.15Zm-46.52,0a31,31,0,0,0,1.2,8.9,19.46,19.46,0,0,0,3.48,6.79,15.69,15.69,0,0,0,5.55,4.34,17,17,0,0,0,7.4,1.55,16.77,16.77,0,0,0,7.31-1.55,15.74,15.74,0,0,0,5.54-4.34,19.64,19.64,0,0,0,3.49-6.79,33.6,33.6,0,0,0,0-17.8,19.69,19.69,0,0,0-3.49-6.8,15.86,15.86,0,0,0-5.54-4.34,16.91,16.91,0,0,0-7.31-1.55,17.1,17.1,0,0,0-7.4,1.55,15.57,15.57,0,0,0-5.55,4.38,20,20,0,0,0-3.48,6.8A30.48,30.48,0,0,0,416.07,123.15Z"/><path class="cls-1" d="M491.79,93.39q1.89,3.27,4.21,8t4.73,9.93q2.41,5.21,4.78,10.58t4.34,9.93l4.3-9.93q2.33-5.37,4.73-10.58t4.73-9.93q2.32-4.73,4.21-8h9.77q.78,6.54,1.48,13.89t1.27,15q.57,7.69,1,15.48c.33,5.19.6,10.25.84,15.18H531.56q-.34-10.41-.83-21.42t-1.45-21.32c-.63,1.32-1.37,2.89-2.23,4.73s-1.78,3.82-2.75,6-2,4.38-3,6.67l-2.92,6.66q-1.42,3.22-2.63,6t-2.06,4.78h-8.09q-.86-2-2.06-4.82c-.8-1.89-1.68-3.91-2.62-6.06s-1.92-4.37-2.93-6.67-2-4.5-3-6.62l-2.76-6q-1.29-2.79-2.23-4.68-1,10.32-1.45,21.32T487.79,153H477.13q.35-7.4.83-15.31c.32-5.27.67-10.51,1.05-15.69s.8-10.22,1.27-15.1,1-9.37,1.49-13.5Z"/><path class="cls-1" d="M598.73,153q-1.22-3.53-2.5-7t-2.5-7.05H568.55c-.8,2.41-1.62,4.77-2.45,7.1s-1.66,4.63-2.46,6.92H552.37q3.35-9.56,6.36-17.63t5.89-15.31q2.86-7.23,5.71-13.76t5.84-12.9h10.35q3,6.36,5.85,12.9t5.71,13.76q2.89,7.23,5.94,15.31T610.43,153Zm-17.59-48.08q-2,4.56-4.51,11.1t-5.29,14.19H591q-2.76-7.65-5.34-14.28T581.14,104.91Z"/><path class="cls-1" d="M622.21,93.39H633V153H622.21Z"/><path class="cls-1" d="M702.18,123.15a34.65,34.65,0,0,1-2.4,13.46,25.53,25.53,0,0,1-6.84,9.54,28.57,28.57,0,0,1-10.66,5.68,48.57,48.57,0,0,1-13.81,1.85q-3.62,0-8.17-.3a56.15,56.15,0,0,1-8.68-1.25V94.25a52,52,0,0,1,8.77-1.2c3.09-.18,5.85-.26,8.25-.26a50.09,50.09,0,0,1,13.68,1.76,28.12,28.12,0,0,1,10.62,5.51,24.7,24.7,0,0,1,6.84,9.46A35.08,35.08,0,0,1,702.18,123.15ZM662.45,144c.63.06,1.46.11,2.5.13s2.43.05,4.21.05q10.92,0,16.3-5.55t5.37-15.52q0-10.16-5.24-15.57t-16.26-5.42a63.56,63.56,0,0,0-6.88.26Z"/><path class="cls-1" d="M756.54,153q-1.21-3.53-2.5-7t-2.5-7.05H726.36c-.8,2.41-1.62,4.77-2.45,7.1s-1.66,4.63-2.46,6.92H710.18q3.35-9.56,6.36-17.63t5.88-15.31q2.88-7.23,5.72-13.76T734,93.39h10.35q3,6.36,5.84,12.9t5.72,13.76q2.88,7.23,5.94,15.31T768.24,153ZM739,104.91q-2,4.56-4.52,11.1t-5.28,14.19h19.6q-2.75-7.65-5.33-14.28T739,104.91Z"/><path class="cls-2" d="M103.42,48.13q7.62,4.65,20.71,5.28l.64,0a29,29,0,0,1,27.42,29h10.53a39.57,39.57,0,0,0-19.85-34.31,39.55,39.55,0,0,0,19.85-34.3H152.19a29,29,0,0,1-58.09,0H83.58A39.54,39.54,0,0,0,103.42,48.13Z"/><path class="cls-2" d="M123.15,0a14.67,14.67,0,1,1-14.67,14.67A14.67,14.67,0,0,1,123.15,0Z"/><path class="cls-3" d="M142.87,198.16q-7.62-4.65-20.71-5.27l-.63,0a29,29,0,0,1-27.43-29H83.58a39.55,39.55,0,0,0,19.84,34.31,39.56,39.56,0,0,0-19.84,34.31H94.1a29,29,0,1,1,58.09,0h10.53A39.57,39.57,0,0,0,142.87,198.16Z"/><path class="cls-3" d="M123.15,246.29a14.67,14.67,0,1,1,14.66-14.66A14.67,14.67,0,0,1,123.15,246.29Z"/><path class="cls-2" d="M162.24,56.16q2.1,8.67,10.92,18.38c.14.15.28.31.43.46a29.05,29.05,0,0,1-1.12,39.9l7.44,7.44a39.54,39.54,0,0,0,10.22-38.29,39.56,39.56,0,0,0,38.3-10.23L221,66.39a29,29,0,1,1-41.08-41.08l-7.44-7.44A39.57,39.57,0,0,0,162.24,56.16Z"/><path class="cls-2" d="M210.22,36.07a14.67,14.67,0,1,1-20.74,0A14.66,14.66,0,0,1,210.22,36.07Z"/><path class="cls-3" d="M84.05,190.14q-2.1-8.69-10.92-18.38l-.42-.47a29,29,0,0,1,1.11-39.9L66.38,124a39.54,39.54,0,0,0-10.22,38.29,39.57,39.57,0,0,0-38.29,10.23l7.43,7.44A29,29,0,1,1,66.38,221l7.44,7.44A39.57,39.57,0,0,0,84.05,190.14Z"/><path class="cls-3" d="M36.07,210.23a14.67,14.67,0,1,1,20.74,0A14.67,14.67,0,0,1,36.07,210.23Z"/><path class="cls-2" d="M198.16,103.43q-4.65,7.62-5.28,20.71,0,.31,0,.63a29,29,0,0,1-29,27.42v10.53a39.57,39.57,0,0,0,34.31-19.85,39.56,39.56,0,0,0,34.31,19.85V152.19a29,29,0,1,1,0-58.09V83.58A39.56,39.56,0,0,0,198.16,103.43Z"/><path class="cls-2" d="M246.29,123.15a14.67,14.67,0,1,1-14.66-14.67A14.67,14.67,0,0,1,246.29,123.15Z"/><path class="cls-3" d="M48.13,142.87q4.65-7.62,5.28-20.71l0-.63a29.05,29.05,0,0,1,29-27.43V83.58a39.56,39.56,0,0,0-34.31,19.85A39.56,39.56,0,0,0,13.82,83.58V94.1a29,29,0,1,1,0,58.09v10.53A39.56,39.56,0,0,0,48.13,142.87Z"/><path class="cls-3" d="M0,123.15a14.67,14.67,0,1,1,14.66,14.67A14.67,14.67,0,0,1,0,123.15Z"/><path class="cls-3" d="M190.13,162.24q-8.67,2.12-18.37,10.92l-.47.43a29.05,29.05,0,0,1-39.9-1.12L124,179.91a39.57,39.57,0,0,0,38.29,10.23,39.57,39.57,0,0,0,10.23,38.29l7.44-7.44A29,29,0,1,1,221,179.91l7.44-7.44A39.58,39.58,0,0,0,190.13,162.24Z"/><path class="cls-3" d="M210.22,210.23a14.67,14.67,0,1,1,0-20.75A14.68,14.68,0,0,1,210.22,210.23Z"/><path class="cls-2" d="M56.16,84.05Q64.83,82,74.53,73.14l.47-.43a29.05,29.05,0,0,1,39.9,1.11l7.44-7.43A39.52,39.52,0,0,0,84.05,56.16,39.57,39.57,0,0,0,73.82,17.87l-7.44,7.44A29,29,0,0,1,25.3,66.39l-7.43,7.43A39.54,39.54,0,0,0,56.16,84.05Z"/><path class="cls-2" d="M36.07,36.07a14.67,14.67,0,1,1,0,20.74A14.66,14.66,0,0,1,36.07,36.07Z"/></g></g></svg>