<svg id="Слой_1" data-name="Слой 1" xmlns="http://www.w3.org/2000/svg" viewBox="0 0 1241.88 720"><defs><style>.cls-1{fill:#1a1a1a;}.cls-2{fill:#494949;}.cls-2,.cls-3{fill-rule:evenodd;}.cls-3{fill:#cecece;}</style></defs><path class="cls-1" d="M973.11,341.16a49.7,49.7,0,0,0-7,1.67l1.57,10.23a35.14,35.14,0,0,1,5.95-1.46,47.36,47.36,0,0,1,8-.63,15.07,15.07,0,0,1,5.37.83,8.42,8.42,0,0,1,5.27,5.85,16.28,16.28,0,0,1,.52,4.18v2.09a42.12,42.12,0,0,0-4.9-.9,39.71,39.71,0,0,0-4.39-.25,41,41,0,0,0-8.61.88,21.68,21.68,0,0,0-7.25,2.92,15,15,0,0,0-5,5.28,15.89,15.89,0,0,0-1.83,7.92,18.78,18.78,0,0,0,1.62,8.25,14.14,14.14,0,0,0,4.49,5.43,19,19,0,0,0,6.94,3,40.26,40.26,0,0,0,9,.94,90.13,90.13,0,0,0,13.3-.89c3.93-.59,6.88-1.09,8.83-1.51V361.93a33.49,33.49,0,0,0-1.1-8.82,16.44,16.44,0,0,0-3.66-6.84,16.84,16.84,0,0,0-6.83-4.38,31,31,0,0,0-10.54-1.56A54.71,54.71,0,0,0,973.11,341.16Zm3.24,44.52q-2.82-1.73-2.82-6.21a6.66,6.66,0,0,1,1-3.82,7,7,0,0,1,2.77-2.34,13.17,13.17,0,0,1,3.86-1.15,29.07,29.07,0,0,1,4.23-.31,28.24,28.24,0,0,1,4.39.31,27,27,0,0,1,3,.62v14a46.69,46.69,0,0,1-8.87.63A14.63,14.63,0,0,1,976.35,385.68Zm-27-42.18A30,30,0,0,0,941,332a34.18,34.18,0,0,0-12.89-6.69,60.73,60.73,0,0,0-16.6-2.14q-4.38,0-10,.32A63.05,63.05,0,0,0,890.87,325v70.25a68.23,68.23,0,0,0,10.54,1.51c3.69.24,7,.36,9.92.36a58.67,58.67,0,0,0,16.75-2.24A34.37,34.37,0,0,0,941,388a30.94,30.94,0,0,0,8.3-11.58,41.91,41.91,0,0,0,2.92-16.34A42.51,42.51,0,0,0,949.32,343.5ZM904,334.9a76.44,76.44,0,0,1,8.35-.31q13.35,0,19.72,6.57t6.37,18.89q0,12.1-6.52,18.84t-19.78,6.74c-2.16,0-3.86,0-5.12-.06s-2.26-.09-3-.16Zm-43.63,61.37h13.15V323.93H860.39Zm-39.19-45q3.12,8,6.47,17.33h-23.8q3.33-9.28,6.42-17.22t5.48-13.47Q818.07,343.25,821.2,351.28Zm30.11,45q-4.06-11.58-7.77-21.4t-7.21-18.57q-3.5-8.78-6.94-16.7c-2.3-5.3-4.66-10.51-7.1-15.67H809.74c-2.44,5.16-4.8,10.37-7.09,15.67s-4.61,10.85-6.94,16.7-4.71,12-7.14,18.57-5,13.68-7.72,21.4h13.67c1-2.79,2-5.58,3-8.4s2-5.69,3-8.61H831q1.47,4.38,3,8.56t3,8.45Zm-122.12,0h12.63V366.11a58.64,58.64,0,0,0-.32-6.27,27.65,27.65,0,0,0-1.14-5.53,18.35,18.35,0,0,1,4.07-1.93,16.57,16.57,0,0,1,5.74-1q5.94,0,8,3.81t2.09,12.37v28.7h12.63V365.58A54.57,54.57,0,0,0,772,355.4a19.94,19.94,0,0,0-3.23-7.93,15.45,15.45,0,0,0-6.47-5.11,26,26,0,0,0-10.49-1.83,23.61,23.61,0,0,0-5,.53,37.12,37.12,0,0,0-4.65,1.3,29.25,29.25,0,0,0-4,1.72,23.61,23.61,0,0,0-2.92,1.78,18.11,18.11,0,0,0-6-3.87,24.86,24.86,0,0,0-9.23-1.46,80.05,80.05,0,0,0-12.48.94,86.76,86.76,0,0,0-9.55,2v52.82h12.63v-44c.84-.14,2.09-.31,3.76-.52a37,37,0,0,1,4.59-.31q5.85,0,8,3.81t2.14,12.37ZM668.6,382a12.32,12.32,0,0,1-19.52,0q-3.5-4.8-3.5-13t3.5-12.9a12.4,12.4,0,0,1,19.52,0q3.49,4.75,3.49,12.9T668.6,382Zm14.51-24.79a26.94,26.94,0,0,0-5.38-9,23.33,23.33,0,0,0-8.3-5.79,27.23,27.23,0,0,0-10.59-2,26.8,26.8,0,0,0-10.54,2,23.87,23.87,0,0,0-8.3,5.79,26.56,26.56,0,0,0-5.43,9,33.91,33.91,0,0,0-1.93,11.75,34.31,34.31,0,0,0,1.93,11.79A26.78,26.78,0,0,0,640,389.8a24,24,0,0,0,8.24,5.84,26.29,26.29,0,0,0,10.65,2.09,26.67,26.67,0,0,0,10.7-2.09,23.93,23.93,0,0,0,8.29-5.84,26.06,26.06,0,0,0,5.33-9.08A35.3,35.3,0,0,0,685,368.93,34.15,34.15,0,0,0,683.11,357.18Zm-56.22-14.77c-.62-.21-1.46-.43-2.5-.67s-2.13-.46-3.24-.63-2.22-.32-3.34-.42-2.09-.16-2.92-.16a56.29,56.29,0,0,0-12.16,1.21,70.06,70.06,0,0,0-9.13,2.55v52h12.63V352.53a29.1,29.1,0,0,1,3.28-.73,26.28,26.28,0,0,1,4.44-.41,32,32,0,0,1,6.42.57,41.35,41.35,0,0,1,4.33,1.1Zm-60.38-7.26a32.46,32.46,0,0,1,7.78,3.19l4-10.75c-.49-.28-1.35-.73-2.56-1.35a27.26,27.26,0,0,0-4.65-1.78,58.59,58.59,0,0,0-6.73-1.51,51.81,51.81,0,0,0-8.92-.68,37.87,37.87,0,0,0-13.78,2.5,31.7,31.7,0,0,0-11.27,7.36A34.83,34.83,0,0,0,522.78,344,43.5,43.5,0,0,0,520,360.05a47.44,47.44,0,0,0,2.51,16.07,33.23,33.23,0,0,0,7,11.8,29.69,29.69,0,0,0,11,7.31,39.29,39.29,0,0,0,14.3,2.5,78.83,78.83,0,0,0,14.92-1.25,61.18,61.18,0,0,0,9.19-2.3V359.42H565.84v26a22.73,22.73,0,0,1-4,.68,59.43,59.43,0,0,1-6,.27,22.46,22.46,0,0,1-9.65-1.94,18.74,18.74,0,0,1-6.89-5.38,23.37,23.37,0,0,1-4.18-8.29,38.22,38.22,0,0,1-1.41-10.7q0-12.3,5.9-19.26t17.06-6.94A36.28,36.28,0,0,1,566.51,335.15Z"/><path class="cls-2" d="M340.24,285q7.62,4.65,20.72,5.27l.63,0a29,29,0,0,1,27.42,29h10.53A39.56,39.56,0,0,0,379.69,285a39.57,39.57,0,0,0,19.85-34.31H389a29,29,0,1,1-58.09,0H320.4A39.56,39.56,0,0,0,340.24,285Z"/><path class="cls-2" d="M360,236.85a14.67,14.67,0,1,1-14.67,14.67A14.67,14.67,0,0,1,360,236.85Z"/><path class="cls-3" d="M379.69,435q-7.62-4.65-20.71-5.27l-.63,0a29.05,29.05,0,0,1-27.43-29H320.4A39.54,39.54,0,0,0,340.24,435a39.56,39.56,0,0,0-19.84,34.31h10.52a29,29,0,0,1,58.09,0h10.53A39.57,39.57,0,0,0,379.69,435Z"/><path class="cls-3" d="M360,483.15a14.67,14.67,0,1,1,14.66-14.67A14.67,14.67,0,0,1,360,483.15Z"/><path class="cls-2" d="M399.06,293q2.1,8.69,10.92,18.38l.43.47a29.05,29.05,0,0,1-1.12,39.9l7.44,7.44A39.56,39.56,0,0,0,427,320.9a39.56,39.56,0,0,0,38.3-10.22l-7.44-7.44a29,29,0,1,1-41.08-41.08l-7.44-7.44A39.57,39.57,0,0,0,399.06,293Z"/><path class="cls-2" d="M447,272.92a14.67,14.67,0,1,1-20.74,0A14.67,14.67,0,0,1,447,272.92Z"/><path class="cls-3" d="M320.87,427c-1.4-5.79-5-11.9-10.92-18.38l-.42-.46a29.05,29.05,0,0,1,1.11-39.91l-7.44-7.43A39.54,39.54,0,0,0,293,399.1a39.52,39.52,0,0,0-38.29,10.23l7.43,7.43a29,29,0,0,1,41.08,41.08l7.44,7.44A39.57,39.57,0,0,0,320.87,427Z"/><path class="cls-3" d="M272.89,447.08a14.67,14.67,0,1,1,20.74,0A14.67,14.67,0,0,1,272.89,447.08Z"/><path class="cls-2" d="M435,340.28q-4.65,7.62-5.28,20.71,0,.31,0,.63a29,29,0,0,1-29,27.43v10.52A39.56,39.56,0,0,0,435,379.72a39.56,39.56,0,0,0,34.31,19.85V389.05a29.05,29.05,0,1,1,0-58.1V320.43A39.56,39.56,0,0,0,435,340.28Z"/><path class="cls-2" d="M483.11,360a14.67,14.67,0,1,1-14.66-14.67A14.67,14.67,0,0,1,483.11,360Z"/><path class="cls-3" d="M285,379.72q4.65-7.62,5.28-20.71l0-.63a29.05,29.05,0,0,1,29-27.43V320.43A39.57,39.57,0,0,0,285,340.28a39.56,39.56,0,0,0-34.31-19.85V331a29.05,29.05,0,0,1,0,58.1v10.52A39.56,39.56,0,0,0,285,379.72Z"/><path class="cls-3" d="M236.82,360a14.67,14.67,0,1,1,14.66,14.67A14.67,14.67,0,0,1,236.82,360Z"/><path class="cls-3" d="M427,399.1q-8.67,2.1-18.37,10.91l-.47.43a29.06,29.06,0,0,1-39.9-1.11l-7.44,7.43A39.57,39.57,0,0,0,399.06,427a39.57,39.57,0,0,0,10.23,38.29l7.44-7.44a29,29,0,1,1,41.08-41.08l7.44-7.43A39.54,39.54,0,0,0,427,399.1Z"/><path class="cls-3" d="M447,447.08a14.67,14.67,0,1,1,0-20.75A14.68,14.68,0,0,1,447,447.08Z"/><path class="cls-2" d="M293,320.9q8.67-2.1,18.37-10.91l.47-.43a29.05,29.05,0,0,1,39.9,1.12l7.44-7.44A39.57,39.57,0,0,0,320.87,293a39.57,39.57,0,0,0-10.23-38.29l-7.44,7.44a29,29,0,0,1-41.08,41.08l-7.43,7.44A39.54,39.54,0,0,0,293,320.9Z"/><path class="cls-2" d="M272.89,272.92a14.67,14.67,0,1,1,0,20.75A14.68,14.68,0,0,1,272.89,272.92Z"/></svg>